<svg width="152" height="47" viewBox="0 0 152 47" fill="none" xmlns="http://www.w3.org/2000/svg">
<path d="M142.056 11.922V16.506H149.928V8.948L142.056 11.922ZM142.056 29.964L149.928 26.99V22.43L142.08 22.406L142.056 29.964ZM47.928 26.648V15.921C47.928 12.971 46.872 10.825 44.736 9.581C43.296 8.704 41.4 8.314 38.76 8.314H38.736C32.16 8.314 29.664 12.093 29.52 15.336V15.458H35.352V15.36C35.52 13.629 36.72 12.702 38.832 12.702C39.816 12.702 40.56 12.922 41.064 13.385C41.544 13.8 41.76 14.385 41.76 15.116C41.76 16.53 40.512 17.14 36.672 17.676C31.752 18.286 28.488 19.602 28.488 24.137C28.488 26.137 29.184 27.794 30.528 28.94C31.8 30.013 33.552 30.574 35.64 30.574C38.448 30.574 40.32 29.672 41.856 27.574C41.976 28.624 42.216 29.501 42.552 29.989L42.576 30.037H48.672V29.501L48.624 29.477C48.144 29.135 47.928 28.282 47.928 26.648ZM41.952 22.406C41.952 24.698 40.152 26.307 37.584 26.307C36.504 26.307 34.68 25.99 34.68 23.942C34.68 22.162 35.976 21.552 38.544 20.992C39.72 20.724 41.04 20.407 41.976 19.895L41.952 22.406ZM60.768 8.314C54.6 8.314 50.136 12.995 50.136 19.432C50.136 22.528 51.168 25.332 53.064 27.331C55.056 29.428 57.816 30.525 61.056 30.525C65.928 30.525 69.672 28.014 70.824 23.966L70.872 23.82H64.8L64.776 23.869C64.104 25.186 62.88 25.844 61.128 25.844C58.392 25.844 56.712 24.186 56.28 21.065H71.208V20.943C71.256 16.603 70.104 13.166 67.872 10.971C65.976 9.241 63.576 8.338 60.768 8.314ZM56.352 17.31C56.784 14.385 58.272 12.873 60.768 12.873C63.072 12.873 64.632 14.58 64.848 17.31H56.352ZM128.256 8.387C125.52 8.387 123.336 9.704 121.728 12.288C120.648 9.704 118.752 8.387 116.064 8.387C113.304 8.387 111.288 9.607 109.896 12.117V8.972H103.872L103.848 29.964V29.989H110.112V18.018C110.112 15.384 111.504 13.629 113.544 13.629C114.48 13.629 115.2 13.946 115.68 14.531C116.184 15.141 116.424 16.018 116.424 17.14V29.964H122.688V17.994C122.688 16.701 123 15.604 123.6 14.824C124.2 14.044 125.064 13.629 126.072 13.629C127.944 13.629 129 14.921 129 17.164V29.99H135.216V16.165C135.24 11.288 132.624 8.387 128.256 8.387ZM73.488 2.633V2.658L73.464 29.915V29.94L79.752 29.964H79.776V0.292998H79.728L73.488 2.633ZM19.968 20.431C19.344 23.138 17.16 24.82 14.256 24.82C9.93597 24.82 7.03197 21.016 7.03197 15.36C7.03197 9.435 9.71997 5.876 14.208 5.876C16.752 5.876 18.744 7.168 19.536 9.289L25.752 6.924C24.996 5.10785 23.7598 3.53182 22.176 2.365C20.184 0.852998 17.448 0.072998 14.256 0.072998H14.232C12.192 0.072998 10.272 0.438998 8.51997 1.195C6.82037 1.91772 5.29141 2.98915 4.03197 4.34C2.75997 5.705 1.77597 7.339 1.10397 9.167C0.407974 11.07 0.0479736 13.141 0.0479736 15.36C0.0479736 19.627 1.43997 23.503 3.95997 26.258C6.52797 29.062 10.152 30.598 14.208 30.598H14.232C18.168 30.598 21.144 29.525 23.4 27.282C25.2448 25.4421 26.4482 23.0571 26.832 20.48V20.456L19.968 20.431ZM95.352 8.948V20.82C95.352 22.088 94.992 23.16 94.32 23.941C93.624 24.746 92.664 25.161 91.536 25.161C89.496 25.161 88.368 23.917 88.368 21.625V8.923H82.104V22.796C82.104 25.112 82.752 27.063 83.976 28.404C85.248 29.794 87.12 30.549 89.4 30.549C92.136 30.549 94.032 29.477 95.568 27.087V29.964H101.52L101.544 8.972V8.948H95.352Z" fill="black"/>
<path d="M81.0777 42.2422H77.9957L77.4098 44H75.5406L78.7164 35.4688H80.3453L83.5387 44H81.6695L81.0777 42.2422ZM78.4703 40.8184H80.6031L79.5309 37.625L78.4703 40.8184ZM89.7684 40.3027H86.3934V42.5879H90.3543V44H84.6355V35.4688H90.3426V36.8926H86.3934V38.9258H89.7684V40.3027ZM94.8438 40.877H93.4434V44H91.6855V35.4688H94.8555C95.8633 35.4688 96.6406 35.6934 97.1875 36.1426C97.7344 36.5918 98.0078 37.2266 98.0078 38.0469C98.0078 38.6289 97.8809 39.1152 97.627 39.5059C97.377 39.8926 96.9961 40.2012 96.4844 40.4316L98.3301 43.918V44H96.4434L94.8438 40.877ZM93.4434 39.4531H94.8613C95.3027 39.4531 95.6445 39.3418 95.8867 39.1191C96.1289 38.8926 96.25 38.582 96.25 38.1875C96.25 37.7852 96.1348 37.4688 95.9043 37.2383C95.6777 37.0078 95.3281 36.8926 94.8555 36.8926H93.4434V39.4531ZM106.657 39.9277C106.657 40.7676 106.509 41.5039 106.212 42.1367C105.915 42.7695 105.489 43.2578 104.935 43.6016C104.384 43.9453 103.751 44.1172 103.036 44.1172C102.329 44.1172 101.698 43.9473 101.144 43.6074C100.589 43.2676 100.159 42.7832 99.8547 42.1543C99.55 41.5215 99.3957 40.7949 99.3918 39.9746V39.5527C99.3918 38.7129 99.5422 37.9746 99.843 37.3379C100.148 36.6973 100.575 36.207 101.126 35.8672C101.681 35.5234 102.314 35.3516 103.025 35.3516C103.736 35.3516 104.366 35.5234 104.917 35.8672C105.472 36.207 105.9 36.6973 106.2 37.3379C106.505 37.9746 106.657 38.7109 106.657 39.5469V39.9277ZM104.876 39.541C104.876 38.6465 104.716 37.9668 104.396 37.502C104.075 37.0371 103.618 36.8047 103.025 36.8047C102.435 36.8047 101.98 37.0352 101.659 37.4961C101.339 37.9531 101.177 38.625 101.173 39.5117V39.9277C101.173 40.7988 101.333 41.4746 101.654 41.9551C101.974 42.4355 102.435 42.6758 103.036 42.6758C103.626 42.6758 104.079 42.4453 104.396 41.9844C104.712 41.5195 104.872 40.8438 104.876 39.957V39.541ZM109.993 42.5879H113.725V44H108.235V35.4688H109.993V42.5879ZM116.908 44H115.15V35.4688H116.908V44ZM125.78 44H124.022L120.6 38.3867V44H118.843V35.4688H120.6L124.028 41.0938V35.4688H125.78V44ZM134.559 44H132.801V40.3438H129.373V44H127.615V35.4688H129.373V38.9258H132.801V35.4688H134.559V44ZM141.321 42.2422H138.239L137.654 44H135.784L138.96 35.4688H140.589L143.782 44H141.913L141.321 42.2422ZM138.714 40.8184H140.847L139.775 37.625L138.714 40.8184ZM149.303 41.7617C149.303 41.4297 149.186 41.1758 148.952 41C148.717 40.8203 148.295 40.6328 147.686 40.4375C147.077 40.2383 146.594 40.043 146.239 39.8516C145.27 39.3281 144.786 38.623 144.786 37.7363C144.786 37.2754 144.914 36.8652 145.172 36.5059C145.434 36.1426 145.807 35.8594 146.291 35.6562C146.78 35.4531 147.327 35.3516 147.932 35.3516C148.541 35.3516 149.084 35.4629 149.561 35.6855C150.037 35.9043 150.407 36.2148 150.668 36.6172C150.934 37.0195 151.067 37.4766 151.067 37.9883H149.309C149.309 37.5977 149.186 37.2949 148.94 37.0801C148.694 36.8613 148.348 36.752 147.903 36.752C147.473 36.752 147.139 36.8438 146.901 37.0273C146.662 37.207 146.543 37.4453 146.543 37.7422C146.543 38.0195 146.682 38.252 146.959 38.4395C147.241 38.627 147.653 38.8027 148.196 38.9668C149.196 39.2676 149.924 39.6406 150.381 40.0859C150.838 40.5312 151.067 41.0859 151.067 41.75C151.067 42.4883 150.787 43.0684 150.229 43.4902C149.67 43.9082 148.918 44.1172 147.973 44.1172C147.317 44.1172 146.719 43.998 146.18 43.7598C145.641 43.5176 145.229 43.1875 144.944 42.7695C144.662 42.3516 144.522 41.8672 144.522 41.3164H146.286C146.286 42.2578 146.848 42.7285 147.973 42.7285C148.391 42.7285 148.717 42.6445 148.952 42.4766C149.186 42.3047 149.303 42.0664 149.303 41.7617Z" fill="black"/>
</svg>