<svg width="204" height="63" viewBox="0 0 204 63" fill="none" xmlns="http://www.w3.org/2000/svg">
<g clip-path="url(#clip0)">
<path d="M190.415 15.9805V22.1251H200.967V11.9941L190.415 15.9805ZM190.415 40.1645L200.967 36.1781V30.0657L190.448 30.0336L190.415 40.1645ZM64.2439 35.7196V21.3409C64.2439 17.3866 62.8284 14.5101 59.9653 12.8426C58.0351 11.6671 55.4936 11.1443 51.9549 11.1443H51.9227C43.1081 11.1443 39.7624 16.2098 39.5694 20.5568V20.7203H47.3867V20.5889C47.6119 18.2686 49.2204 17.0261 52.0514 17.0261C53.3704 17.0261 54.3677 17.321 55.0432 17.9416C55.6866 18.4979 55.9762 19.282 55.9762 20.2619C55.9762 22.1572 54.3033 22.9749 49.1561 23.6933C42.5612 24.511 38.186 26.275 38.186 32.3538C38.186 35.0347 39.119 37.2558 40.9205 38.7919C42.6255 40.2302 44.9739 40.9822 47.7728 40.9822C51.5367 40.9822 54.0459 39.7731 56.1048 36.9609C56.2657 38.3683 56.5874 39.5439 57.0378 40.198L57.07 40.2623H65.2412V39.5439L65.1768 39.5117C64.5334 39.0533 64.2439 37.9099 64.2439 35.7196ZM56.2335 30.0336C56.2335 33.1058 53.8208 35.2626 50.3785 35.2626C48.9309 35.2626 46.486 34.8376 46.486 32.0925C46.486 29.7065 48.2231 28.8888 51.6654 28.1382C53.2417 27.779 55.0111 27.3541 56.2657 26.6678L56.2335 30.0336ZM81.455 11.1443C73.1872 11.1443 67.2036 17.4188 67.2036 26.0471C67.2036 30.1971 68.5869 33.9556 71.1283 36.6352C73.7985 39.446 77.498 40.9165 81.841 40.9165C88.3716 40.9165 93.3901 37.5507 94.9343 32.1246L94.9986 31.9289H86.8596L86.8274 31.9946C85.9266 33.7599 84.2859 34.6419 81.9375 34.6419C78.2701 34.6419 76.0182 32.4195 75.4391 28.2361H95.449V28.0725C95.5134 22.2551 93.9692 17.648 90.9774 14.7058C88.4359 12.3869 85.2189 11.1765 81.455 11.1443ZM75.5357 23.2028C76.1147 19.282 78.1093 17.2553 81.455 17.2553C84.5433 17.2553 86.6344 19.5434 86.9239 23.2028H75.5357ZM171.918 11.2421C168.25 11.2421 165.323 13.0075 163.167 16.4711C161.72 13.0075 159.178 11.2421 155.575 11.2421C151.876 11.2421 149.173 12.8775 147.307 16.2419V12.0263H139.233L139.201 40.1645V40.198H147.597V24.1518C147.597 20.6211 149.463 18.2686 152.197 18.2686C153.452 18.2686 154.417 18.6936 155.06 19.4777C155.736 20.2954 156.058 21.4709 156.058 22.9749V40.1645H164.454V24.1196C164.454 22.3864 164.872 20.916 165.677 19.8705C166.481 18.8249 167.639 18.2686 168.99 18.2686C171.499 18.2686 172.915 20.0005 172.915 23.0071V40.1993H181.247V21.668C181.279 15.1307 177.773 11.2421 171.918 11.2421ZM98.5052 3.52933V3.56284L98.473 40.0988V40.1323L106.902 40.1645H106.934V0.392733H106.869L98.5052 3.52933ZM26.7656 27.3862C25.9292 31.0148 23.0017 33.2693 19.1091 33.2693C13.3185 33.2693 9.42586 28.1704 9.42586 20.5889C9.42586 12.6469 13.0289 7.87633 19.0448 7.87633C22.4548 7.87633 25.1249 9.60816 26.1865 12.4512L34.5186 9.28109C33.5053 6.84669 31.8482 4.73414 29.7253 3.17009C27.0551 1.14337 23.3877 0.0978394 19.1091 0.0978394H19.0769C16.3425 0.0978394 13.7688 0.588435 11.4204 1.6018C9.14223 2.57055 7.09276 4.00673 5.40459 5.81744C3.69957 7.64712 2.38059 9.83737 1.47982 12.2877C0.546884 14.8385 0.0643311 17.6145 0.0643311 20.5889C0.0643311 26.3085 1.9302 31.504 5.30808 35.1969C8.75029 38.9554 13.608 41.0143 19.0448 41.0143H19.0769C24.3528 41.0143 28.3419 39.576 31.3659 36.5695C33.8388 34.1032 35.4519 30.9063 35.9663 27.4519V27.4197L26.7656 27.3862ZM127.812 11.9941V27.9076C127.812 29.6073 127.33 31.0442 126.429 32.0911C125.496 33.1702 124.209 33.7264 122.697 33.7264C119.963 33.7264 118.451 32.0589 118.451 28.9867V11.9606H110.054V30.5563C110.054 33.6608 110.923 36.2759 112.564 38.0734C114.269 39.9366 116.778 40.9486 119.834 40.9486C123.501 40.9486 126.043 39.5117 128.102 36.3081V40.1645H136.08L136.112 12.0263V11.9941H127.812Z" fill="#FBF300"/>
</g>
<path d="M108.679 56.8778H104.547L103.762 59.234H101.257L105.513 47.7985H107.697L111.977 59.234H109.472L108.679 56.8778ZM105.184 54.9693H108.042L106.605 50.6888L105.184 54.9693ZM120.328 54.2781H115.804V57.3412H121.113V59.234H113.448V47.7985H121.098V49.707H115.804V52.4324H120.328V54.2781ZM127.131 55.0478H125.254V59.234H122.898V47.7985H127.147C128.498 47.7985 129.54 48.0996 130.273 48.7017C131.006 49.3039 131.372 50.1547 131.372 51.2543C131.372 52.0345 131.202 52.6863 130.862 53.2099C130.527 53.7283 130.016 54.142 129.33 54.4509L131.804 59.1241V59.234H129.275L127.131 55.0478ZM125.254 53.1393H127.155C127.746 53.1393 128.204 52.99 128.529 52.6916C128.854 52.3879 129.016 51.9716 129.016 51.4428C129.016 50.9035 128.862 50.4794 128.553 50.1704C128.249 49.8615 127.78 49.707 127.147 49.707H125.254V53.1393ZM142.966 53.7754C142.966 54.9012 142.767 55.8882 142.369 56.7364C141.971 57.5847 141.401 58.2392 140.657 58.6999C139.919 59.1607 139.071 59.3911 138.113 59.3911C137.165 59.3911 136.319 59.1633 135.576 58.7078C134.832 58.2523 134.256 57.603 133.848 56.76C133.439 55.9117 133.233 54.9378 133.227 53.8383V53.2728C133.227 52.147 133.429 51.1574 133.832 50.3039C134.24 49.4452 134.814 48.7881 135.552 48.3326C136.296 47.8718 137.144 47.6414 138.097 47.6414C139.05 47.6414 139.895 47.8718 140.634 48.3326C141.377 48.7881 141.951 49.4452 142.354 50.3039C142.762 51.1574 142.966 52.1444 142.966 53.2649V53.7754ZM140.579 53.2571C140.579 52.058 140.364 51.1469 139.935 50.5239C139.505 49.9008 138.893 49.5892 138.097 49.5892C137.306 49.5892 136.696 49.8982 136.267 50.516C135.837 51.1286 135.62 52.0292 135.615 53.2178V53.7754C135.615 54.9431 135.83 55.8489 136.259 56.4929C136.688 57.137 137.306 57.459 138.113 57.459C138.903 57.459 139.511 57.1501 139.935 56.5322C140.359 55.9091 140.573 55.0033 140.579 53.8147V53.2571ZM147.437 57.3412H152.44V59.234H145.081V47.7985H147.437V57.3412ZM156.706 59.234H154.35V47.7985H156.706V59.234ZM168.599 59.234H166.243L161.656 51.7098V59.234H159.3V47.7985H161.656L166.25 55.3384V47.7985H168.599V59.234ZM180.366 59.234H178.01V54.3331H173.415V59.234H171.059V47.7985H173.415V52.4324H178.01V47.7985H180.366V59.234ZM189.431 56.8778H185.3L184.514 59.234H182.009L186.266 47.7985H188.449L192.73 59.234H190.224L189.431 56.8778ZM185.936 54.9693H188.795L187.357 50.6888L185.936 54.9693ZM200.13 56.2338C200.13 55.7887 199.973 55.4484 199.658 55.2127C199.344 54.9719 198.779 54.7205 197.962 54.4587C197.145 54.1917 196.499 53.9299 196.022 53.6733C194.724 52.9717 194.074 52.0266 194.074 50.838C194.074 50.2202 194.247 49.6704 194.593 49.1887C194.943 48.7017 195.443 48.3221 196.093 48.0498C196.747 47.7776 197.48 47.6414 198.292 47.6414C199.109 47.6414 199.837 47.7906 200.475 48.0891C201.114 48.3823 201.609 48.7986 201.96 49.3379C202.316 49.8772 202.494 50.4898 202.494 51.1757H200.138C200.138 50.6521 199.973 50.2464 199.643 49.9584C199.313 49.6652 198.85 49.5185 198.253 49.5185C197.677 49.5185 197.229 49.6416 196.91 49.8877C196.59 50.1285 196.43 50.4479 196.43 50.8459C196.43 51.2176 196.616 51.5292 196.988 51.7805C197.365 52.0318 197.917 52.2675 198.645 52.4874C199.986 52.8905 200.962 53.3906 201.575 53.9875C202.187 54.5844 202.494 55.3279 202.494 56.2181C202.494 57.2077 202.119 57.9852 201.371 58.5507C200.622 59.111 199.614 59.3911 198.347 59.3911C197.467 59.3911 196.666 59.2314 195.944 58.912C195.221 58.5874 194.669 58.1449 194.286 57.5847C193.909 57.0244 193.721 56.3751 193.721 55.6369H196.085C196.085 56.8987 196.839 57.5297 198.347 57.5297C198.907 57.5297 199.344 57.4171 199.658 57.192C199.973 56.9616 200.13 56.6422 200.13 56.2338Z" fill="#FBF300"/>
<defs>
<clipPath id="clip0">
<rect width="201.064" height="41.5532" fill="white"/>
</clipPath>
</defs>
</svg>
